<?xml version="1.0" encoding="UTF-8" standalone="no"?>
<svg
   xmlns:dc="http://purl.org/dc/elements/1.1/"
   xmlns:cc="http://creativecommons.org/ns#"
   xmlns:rdf="http://www.w3.org/1999/02/22-rdf-syntax-ns#"
   xmlns:svg="http://www.w3.org/2000/svg"
   xmlns="http://www.w3.org/2000/svg"
   xmlns:sodipodi="http://sodipodi.sourceforge.net/DTD/sodipodi-0.dtd"
   xmlns:inkscape="http://www.inkscape.org/namespaces/inkscape"
   width="425.19684"
   height="170.07874"
   id="svg2"
   version="1.1"
   inkscape:version="0.48.5 r10040"
   sodipodi:docname="logo.svg">
  <metadata
     id="metadata24">
    <rdf:RDF>
      <cc:Work
         rdf:about="">
        <dc:format>image/svg+xml</dc:format>
        <dc:type
           rdf:resource="http://purl.org/dc/dcmitype/StillImage" />
      </cc:Work>
    </rdf:RDF>
  </metadata>
  <defs
     id="defs22" />
  <sodipodi:namedview
     pagecolor="#ffffff"
     bordercolor="#666666"
     borderopacity="1"
     objecttolerance="10"
     gridtolerance="10"
     guidetolerance="10"
     inkscape:pageopacity="0"
     inkscape:pageshadow="2"
     inkscape:window-width="1122"
     inkscape:window-height="764"
     id="namedview20"
     showgrid="false"
     units="mm"
     inkscape:zoom="0.41627715"
     inkscape:cx="115.87347"
     inkscape:cy="283.465"
     inkscape:window-x="0"
     inkscape:window-y="0"
     inkscape:window-maximized="0"
     inkscape:current-layer="svg2" />
  <g
     id="g4"
     transform="matrix(0.8,0,0,0.8,-15.072782,-220.54503)">
    <title
       id="title6">Layer 1</title>
    <path
       id="svg_2"
       d="m 118.652,337.78799 0,8.36701 c -8.532,-5.01502 -15.868,-7.52301 -22.008003,-7.52301 -5.905998,0 -10.839996,1.793 -14.800995,5.379 -3.962006,3.586 -5.941002,8.02801 -5.941002,13.324 0,3.797 1.170998,7.22 3.515999,10.26599 2.343002,3.04801 7.242004,5.97702 14.695,8.789 7.453001,2.81198 12.890001,5.15702 16.312001,7.03101 3.421,1.87601 6.328,4.595 8.719,8.156 2.391,3.56299 3.586,8.181 3.586,13.85199 0,7.54801 -2.767,13.922 -8.297,19.125 -5.532,5.20301 -12.282,7.805 -20.250002,7.805 -8.155998,0 -16.547997,-2.858 -25.171997,-8.57801 l 0,-8.92999 C 78.526,421.836 86.776,425.328 93.761001,425.328 c 5.811996,0 10.722999,-1.88602 14.729999,-5.66 4.00699,-3.77399 6.012,-8.40302 6.012,-13.88901 0,-4.173 -1.243,-7.935 -3.727,-11.28601 -2.484,-3.353 -7.521,-6.48499 -15.111999,-9.4 -7.590004,-2.914 -13.014999,-5.26199 -16.275002,-7.04098 -3.261002,-1.77902 -6.028,-4.32202 -8.303001,-7.625 -2.275002,-3.302 -3.411995,-7.55402 -3.411995,-12.755 0,-7.21402 2.764999,-13.362 8.296997,-18.44599 5.529999,-5.082 12.186996,-7.62402 19.969002,-7.62402 7.640998,-9.8e-4 15.210998,2.06201 22.711998,6.186 z"
       inkscape:connector-curvature="0" />
    <path
       id="svg_3"
       d="m 139.886,332.866 27.06999,0 c 10.35901,0 18.29201,2.32 23.80101,6.961 5.50701,4.64099 8.262,10.96899 8.262,18.98401 0,8.10998 -2.777,14.53198 -8.332,19.26599 -5.555,4.73501 -13.7,7.10199 -24.43399,7.10199 l -18.77301,0 0,45.914 -7.594,0 0,-98.22699 z m 7.594,6.328 0,39.65601 18.281,0 c 8.202,0 14.437,-1.73301 18.70299,-5.20301 4.265,-3.46802 6.39799,-8.367 6.39799,-14.695 0,-6.047 -2.08599,-10.85099 -6.25799,-14.414 -4.173,-3.56199 -10.149,-5.344 -17.92999,-5.344 l -19.194,0 z"
       inkscape:connector-curvature="0" />
    <path
       id="svg_4"
       d="m 239.248,332.16299 45.41301,98.93 -7.96802,0 -39.59999,-86.555 -39.45801,86.555 -7.96699,0 45.408,-98.93 4.172,0 z"
       inkscape:connector-curvature="0"
       style="fill:#ff0000" />
    <path
       id="svg_5"
       d="m 296.543,332.866 25.172,0 c 10.54699,0 18.60699,2.285 24.18801,6.85501 5.577,4.56997 8.36698,10.74698 8.36698,18.52698 0,11.345 -6.23499,19.31301 -18.703,23.906 3.234,1.547 7.59402,6.539 13.078,14.97702 l 22.21902,33.961 -8.99002,0 -17.10898,-26.92102 c -5.71701,-9.004 -10.169,-14.61798 -13.35501,-16.84699 -3.18701,-2.22799 -7.85,-3.34201 -13.987,-3.34201 l -13.28399,0 0,47.10901 -7.594,0 0,-98.225 -0.002,0 z m 7.59399,6.328 0,38.461 16.31201,0 c 8.297,0 14.63498,-1.67499 19.01999,-5.02701 4.38199,-3.35098 6.57401,-8.09698 6.57401,-14.23798 0,-6.04702 -2.228,-10.75802 -6.68002,-14.13302 -4.45499,-3.375 -10.85398,-5.06198 -19.19498,-5.06198 l -16.03101,0 0,-0.001 z"
       inkscape:connector-curvature="0" />
    <path
       id="svg_6"
       d="m 425.285,337.78799 0,8.36701 c -8.53299,-5.01502 -15.86801,-7.52301 -22.00799,-7.52301 -5.90601,0 -10.841,1.793 -14.801,5.379 -3.96301,3.586 -5.94101,8.02801 -5.94101,13.324 0,3.797 1.16999,7.22 3.51599,10.26599 2.34302,3.04801 7.24201,5.97702 14.69501,8.789 7.453,2.81198 12.88998,5.15702 16.31201,7.03101 3.41999,1.87601 6.32797,4.595 8.719,8.156 2.39099,3.56299 3.586,8.181 3.586,13.85199 0,7.54801 -2.76801,13.922 -8.297,19.125 -5.53201,5.20301 -12.28201,7.805 -20.25,7.805 -8.15601,0 -16.54901,-2.858 -25.172,-8.57801 l 0,-8.92999 c 9.51499,6.98502 17.76398,10.47702 24.75,10.47702 5.81098,0 10.72299,-1.88602 14.72998,-5.66 4.00699,-3.77399 6.012,-8.40302 6.012,-13.88901 0,-4.173 -1.24299,-7.935 -3.72699,-11.28601 -2.48401,-3.353 -7.521,-6.48499 -15.112,-9.4 -7.59101,-2.914 -13.01499,-5.26199 -16.27399,-7.04098 -3.26203,-1.77902 -6.02902,-4.32202 -8.30301,-7.625 -2.27499,-3.302 -3.41199,-7.55402 -3.41199,-12.755 0,-7.21402 2.76499,-13.362 8.297,-18.44599 5.52899,-5.082 12.18698,-7.62402 19.96899,-7.62402 7.63901,-9.8e-4 15.20999,2.06201 22.711,6.186 z"
       inkscape:connector-curvature="0" />
    <path
       id="svg_7"
       d="m 500.379,332.866 0,6.328 -45.98401,0 0,39.30499 20.60501,0 0,6.39801 -20.60501,0 0,39.86701 47.10901,0 0,6.328 -54.70301,0 0,-98.22702 53.57801,0 0,0.001 z"
       inkscape:connector-curvature="0"
       style="fill:#00f200" />
    <g
       id="svg_8" />
    <g
       id="svg_9" />
    <g
       id="svg_10" />
    <g
       id="svg_11" />
    <g
       id="svg_12" />
    <g
       id="svg_13" />
  </g>
</svg>
